<svg width="484" height="390" viewBox="0 0 484 390" fill="none" xmlns="http://www.w3.org/2000/svg">
<path d="M435.861 133.198L401.319 167.806L357.599 124.003L243.293 9.48086C239.804 5.98454 242.276 0 247.214 0H321.271L435.861 114.808C440.927 119.889 440.927 128.117 435.861 133.198Z" fill="#FFB400"/>
<path d="M401.319 167.806L321.278 248H247.214C242.277 248 239.799 242.015 243.294 238.519L357.599 124.003L401.319 167.806Z" fill="#F75D25"/>
<path d="M258.105 113.38V113.74L272.325 187H251.085L242.625 132.64H242.085L240.285 137.86V187H219.045V61H240.285V91.06L238.125 116.44L238.845 116.62L250.905 61H271.965L258.105 113.38Z" fill="#F9F0DD"/>
<path d="M191.62 82.42C191.62 77.62 190.18 75.22 187.3 75.22C184.3 75.22 182.8 77.62 182.8 82.42V165.22C182.8 170.14 184.3 172.6 187.3 172.6C190.18 172.6 191.62 170.14 191.62 165.22V140.38H212.86V162.34C212.86 171.7 210.52 178.6 205.84 183.04C201.16 187.48 194.98 189.7 187.3 189.7C179.62 189.7 173.38 187.48 168.58 183.04C163.9 178.6 161.56 171.7 161.56 162.34V85.48C161.56 76.12 163.9 69.28 168.58 64.96C173.38 60.52 179.62 58.3 187.3 58.3C194.98 58.3 201.16 60.52 205.84 64.96C210.52 69.28 212.86 76.12 212.86 85.48V107.26H191.62V82.42Z" fill="#F9F0DD"/>
<path d="M159.217 187H138.157L136.717 158.56H129.517L128.257 187H107.017L119.257 61H146.977L159.217 187ZM135.997 141.64L133.657 90.16H132.757L130.237 141.64H135.997Z" fill="#F9F0DD"/>
<path d="M78.4744 61C86.3944 61 92.7544 63.46 97.5544 68.38C102.474 73.18 104.934 80.26 104.934 89.62V106C104.934 111.4 103.794 115.9 101.514 119.5C99.3544 123.1 96.1744 125.62 91.9744 127.06V127.78C96.1744 129.1 99.3544 131.62 101.514 135.34C103.794 138.94 104.934 143.44 104.934 148.84V169.18C104.934 172.78 104.994 175.84 105.114 178.36C105.354 180.76 105.774 183.4 106.374 186.28V187H85.1344C84.5344 183.76 84.1144 180.88 83.8744 178.36C83.7544 175.84 83.6944 172.78 83.6944 169.18V143.26C83.6944 138.46 81.9544 136.06 78.4744 136.06H74.8744V187H53.6344V61H78.4744ZM74.8744 118.96H78.4744C81.9544 118.96 83.6944 116.5 83.6944 111.58V85.12C83.6944 80.32 81.9544 77.92 78.4744 77.92H74.8744V118.96Z" fill="#F9F0DD"/>
<path d="M48.24 77.92H34.74V186.82H13.5V77.92H0V60.82H48.24V77.92Z" fill="#F9F0DD"/>
<path d="M216.678 285.76V325H195.438V285.76L179.778 199H201.018L205.518 265.6H206.418L207.498 251.92L210.918 199H232.158L216.678 285.76Z" fill="#F9F0DD"/>
<path d="M176.08 325H156.28L160.96 226.72L160.06 226.54L149.98 325H130.54L121.54 239.68L119.92 226.54L119.02 226.72L123.7 325H103.9V199H134.68L139.18 283.42L139.72 296.02H140.62L145.3 199H176.08V325Z" fill="#F9F0DD"/>
<path d="M473.191 387H445.291L441.331 290.7H440.431L436.111 387H408.211L397.771 261H419.011L421.891 361.98H422.611L428.011 261H453.571L459.331 361.98H460.231L460.411 349.2L462.571 261H483.811L473.191 387Z" fill="#F9F0DD"/>
<path d="M394.985 362.34C394.985 371.34 392.705 378.18 388.145 382.86C383.585 387.42 377.285 389.7 369.245 389.7C361.325 389.7 355.085 387.42 350.525 382.86C345.965 378.18 343.685 371.34 343.685 362.34V285.48C343.685 276.48 345.965 269.7 350.525 265.14C355.085 260.58 361.385 258.3 369.425 258.3C377.345 258.3 383.585 260.58 388.145 265.14C392.705 269.7 394.985 276.48 394.985 285.48V362.34ZM373.745 282.42C373.745 277.62 372.245 275.22 369.245 275.22C366.365 275.22 364.925 277.62 364.925 282.42V365.22C364.925 370.14 366.365 372.6 369.245 372.6C372.245 372.6 373.745 370.14 373.745 365.22V282.42Z" fill="#F9F0DD"/>
<path d="M337.32 387H316.08V332.64H307.62V387H286.38V261H307.62V315.72H316.08V261H337.32V387Z" fill="#F9F0DD"/>
<path d="M258.96 301.86V282.42C258.96 279.66 258.6 277.8 257.88 276.84C257.16 275.76 256.14 275.22 254.82 275.22C253.26 275.22 252.12 275.76 251.4 276.84C250.68 277.8 250.32 279.66 250.32 282.42V294.84C250.32 298.92 251.52 302.7 253.92 306.18C256.32 309.54 259.08 312.96 262.2 316.44C264.36 318.6 266.52 320.94 268.68 323.46C270.84 325.86 272.76 328.5 274.44 331.38C276.24 334.14 277.68 337.2 278.76 340.56C279.84 343.8 280.38 347.46 280.38 351.54V362.16C280.38 371.4 278.04 378.3 273.36 382.86C268.8 387.42 262.56 389.7 254.64 389.7C246.72 389.7 240.42 387.42 235.74 382.86C231.18 378.3 228.9 371.4 228.9 362.16V345.78H250.14V365.22C250.14 367.98 250.5 369.9 251.22 370.98C251.94 372.06 253.08 372.6 254.64 372.6C256.08 372.6 257.16 372.06 257.88 370.98C258.72 369.9 259.14 367.98 259.14 365.22V352.8C259.14 348.36 257.64 344.16 254.64 340.2C251.64 336.24 248.28 332.28 244.56 328.32C242.64 326.28 240.72 324.18 238.8 322.02C237 319.74 235.38 317.34 233.94 314.82C232.5 312.18 231.3 309.36 230.34 306.36C229.5 303.24 229.08 299.88 229.08 296.28V285.3C229.08 276.18 231.36 269.4 235.92 264.96C240.48 260.4 246.72 258.12 254.64 258.12C262.56 258.12 268.8 260.4 273.36 264.96C277.92 269.52 280.2 276.3 280.2 285.3V301.86H258.96Z" fill="#F9F0DD"/>
</svg>
